<svg width="512" height="512" viewBox="0 0 512 512" fill="none"
  xmlns="http://www.w3.org/2000/svg">
  <path d="M409.721 290.412C415.496 264.513 414.639 237.576 407.229 212.097C399.819 186.617 386.096 163.421 367.332 144.659C348.569 125.897 325.372 112.175 299.892 104.767C274.412 97.3589 247.475 96.5036 221.576 102.28L261.34 250.622L409.721 290.412Z" fill="#FF9332"/>
  <path d="M361.882 291.186C356.062 308.726 345.977 324.546 332.533 337.225C319.088 349.905 302.704 359.046 284.854 363.829C267.003 368.612 248.243 368.886 230.26 364.627C212.277 360.369 195.634 351.71 181.824 339.43L149.293 371.96C168.836 389.91 192.594 402.636 218.365 408.959C244.136 415.281 271.086 414.995 296.718 408.127C322.349 401.259 345.831 388.032 364.988 369.67C384.145 351.309 398.357 328.409 406.306 303.092L361.882 291.186Z" fill="#EA5237"/>
  <path d="M159.353 311.811C151.086 297.465 146.113 281.46 144.793 264.956C143.473 248.451 145.839 231.859 151.721 216.382C157.603 200.904 166.852 186.928 178.8 175.466C190.748 164.003 205.096 155.34 220.804 150.105L208.897 105.681C183.581 113.63 160.682 127.841 142.322 146.998C123.962 166.154 110.736 189.636 103.869 215.266C97.0024 240.896 96.7176 267.845 103.041 293.615C109.365 319.384 122.092 343.14 140.043 362.68L172.639 330.15C167.606 324.499 163.155 318.355 159.353 311.811V311.811Z" fill="#FFB347"/>
</svg>
  